<?xml version="1.0" standalone="no"?>
<!DOCTYPE svg PUBLIC "-//W3C//DTD SVG 20010904//EN"
 "http://www.w3.org/TR/2001/REC-SVG-20010904/DTD/svg10.dtd">
<svg version="1.0" xmlns="http://www.w3.org/2000/svg"
 width="2684.000000pt" height="2684.000000pt" viewBox="0 0 2684.000000 2684.000000"
 preserveAspectRatio="xMidYMid meet">
<metadata>
Created by potrace 1.11, written by Peter Selinger 2001-2013
</metadata>
<g transform="translate(0.000000,2684.000000) scale(0.100000,-0.100000)"
fill="#000000" stroke="none">
<path d="M22465 26825 c-27 -8 -84 -31 -125 -52 -97 -49 -240 -189 -328 -323
-84 -127 -200 -364 -315 -645 -187 -453 -234 -546 -412 -815 -255 -386 -526
-708 -911 -1081 -722 -700 -1743 -1338 -2848 -1781 -2135 -854 -4557 -1056
-6643 -553 -1180 285 -2208 780 -3047 1468 -338 277 -684 627 -931 942 -143
183 -219 306 -558 905 -234 415 -409 650 -606 814 -142 118 -270 191 -440 250
-186 65 -280 80 -501 80 -176 0 -206 -2 -307 -26 -582 -137 -1057 -641 -1221
-1294 -48 -192 -56 -262 -56 -484 0 -396 79 -720 260 -1078 225 -442 512 -778
1249 -1457 193 -178 404 -377 469 -443 l119 -121 -59 -67 c-530 -605 -1193
-1122 -2039 -1589 -88 -49 -421 -218 -740 -376 -740 -367 -927 -469 -1219
-666 -343 -232 -554 -442 -661 -658 -57 -114 -78 -197 -78 -310 -1 -116 14
-177 73 -300 76 -158 215 -315 405 -459 l70 -53 135 8 c720 46 1368 234 1955
567 127 72 389 246 514 342 408 311 715 608 1376 1335 552 606 846 905 1134
1152 l155 132 150 -78 c447 -234 897 -419 2001 -821 530 -193 797 -293 1143
-430 l82 -33 0 -81 c-1 -232 -80 -568 -200 -851 -93 -220 -251 -509 -424 -775
-38 -58 -200 -293 -360 -523 -357 -512 -498 -735 -625 -987 -187 -374 -259
-629 -276 -985 -13 -248 24 -483 99 -637 82 -167 211 -273 396 -324 102 -29
302 -26 400 4 186 59 343 171 498 357 167 200 288 404 526 885 559 1129 860
2038 1185 3583 l67 317 529 4 c513 4 648 9 1010 42 921 82 1819 271 2945 619
118 36 510 164 871 284 l656 218 174 -350 c408 -821 769 -1442 1224 -2107 173
-252 285 -423 460 -700 359 -568 543 -819 773 -1054 169 -172 321 -287 477
-360 208 -99 444 -129 629 -81 274 71 578 387 652 675 24 94 15 265 -20 383
-63 214 -188 398 -422 628 -199 194 -368 325 -859 669 -538 377 -679 486 -873
674 -293 284 -587 739 -804 1241 -100 229 -288 751 -288 796 0 38 515 443
1030 810 96 69 417 292 712 497 536 371 847 590 1030 729 53 40 101 73 106 73
18 0 208 -133 327 -228 218 -175 362 -307 980 -897 464 -444 654 -621 879
-819 820 -722 1425 -1088 1971 -1192 121 -23 364 -24 457 -1 252 61 508 285
644 560 193 393 -3 750 -590 1076 -209 116 -490 233 -1001 419 -181 66 -377
139 -433 161 -234 94 -1066 497 -1327 643 -464 260 -786 503 -1054 791 l-82
88 31 42 c84 114 210 259 607 693 384 422 569 662 731 951 155 277 258 595
292 902 26 233 -7 754 -51 807 -19 24 -165 126 -262 184 -110 65 -229 116
-332 141 -95 22 -254 24 -330 4z"/>
<path d="M13918 15050 c-342 -61 -810 -471 -1125 -985 -76 -123 -171 -320
-213 -439 -17 -49 -190 -719 -386 -1490 -195 -771 -418 -1635 -494 -1921 -617
-2314 -885 -3511 -1060 -4740 -196 -1385 -220 -2659 -69 -3675 75 -500 263
-890 572 -1187 512 -492 1366 -700 2353 -573 761 98 1543 395 2084 793 535
394 990 937 1299 1554 225 450 395 1017 475 1589 52 371 61 513 60 1024 0 493
-7 641 -55 1060 -197 1750 -853 3832 -2032 6455 -329 731 -1101 2373 -1148
2442 -54 79 -150 113 -261 93z m-173 -4825 c464 -1128 656 -1631 892 -2330
440 -1308 686 -2379 779 -3395 21 -235 30 -846 15 -1076 -10 -159 -50 -586
-55 -591 -1 -1 -91 -14 -201 -28 -350 -47 -645 -45 -1030 6 -219 29 -608 95
-700 120 -531 139 -863 508 -979 1089 -43 214 -51 322 -51 680 1 1087 176
2440 516 3970 149 670 530 2235 540 2217 4 -6 127 -304 274 -662z"/>
</g>
</svg>
