<?xml version="1.0" standalone="no"?>
<!DOCTYPE svg PUBLIC "-//W3C//DTD SVG 20010904//EN"
 "http://www.w3.org/TR/2001/REC-SVG-20010904/DTD/svg10.dtd">
<svg version="1.0" xmlns="http://www.w3.org/2000/svg"
 width="1065.000000pt" height="1065.000000pt" viewBox="0 0 1065.000000 1065.000000"
 preserveAspectRatio="xMidYMid meet">
<metadata>
Created by potrace 1.11, written by Peter Selinger 2001-2013
</metadata>
<g transform="translate(0.000000,1065.000000) scale(0.100000,-0.100000)"
fill="#000000" stroke="none">
<path d="M2795 10643 c-41 -8 -105 -35 -105 -43 0 -5 -21 -15 -47 -22 -60 -17
-63 -30 -29 -142 29 -95 31 -109 14 -135 -10 -16 -4 -48 31 -179 46 -170 47
-191 10 -263 -29 -58 -68 -83 -155 -103 -43 -10 -85 -19 -91 -22 -20 -5 -17
-280 3 -360 11 -46 13 -68 5 -81 -8 -14 -11 -15 -11 -3 0 17 -55 101 -73 112
-23 14 -74 8 -100 -13 -32 -24 -50 -86 -41 -134 6 -35 6 -35 -29 -35 -24 0
-43 -7 -55 -21 -21 -22 -36 -87 -26 -113 5 -13 -1 -16 -30 -16 -39 0 -56 -20
-56 -63 0 -16 -7 -26 -20 -30 -28 -7 -26 -38 10 -187 58 -238 64 -251 115
-284 37 -23 53 -27 83 -22 l37 5 36 -72 c20 -39 59 -117 88 -172 34 -66 56
-125 66 -175 13 -65 63 -614 95 -1030 15 -199 97 -504 179 -669 28 -56 55
-136 86 -261 9 -36 36 -116 61 -178 24 -63 44 -129 44 -148 0 -63 -21 -123
-55 -157 -27 -26 -49 -76 -124 -288 -106 -295 -122 -378 -103 -504 14 -91 46
-169 80 -195 20 -17 40 -20 114 -20 87 0 91 -1 120 -31 30 -30 31 -31 22 -97
-5 -37 -8 -108 -8 -157 0 -144 34 -207 125 -229 59 -13 119 -122 105 -188 -3
-15 -9 -41 -12 -58 -4 -20 -1 -34 10 -46 12 -12 16 -27 12 -58 -18 -145 -18
-195 3 -253 11 -32 25 -107 31 -168 7 -60 18 -120 26 -133 14 -21 33 -31 137
-76 20 -8 37 -22 37 -30 0 -7 -20 -52 -45 -99 -137 -256 -213 -643 -232 -1165
-6 -172 -5 -185 14 -220 12 -20 24 -53 28 -72 10 -49 35 -95 89 -164 25 -33
46 -65 46 -71 0 -7 31 -64 70 -127 l69 -115 -10 -178 c-14 -229 -8 -760 7
-775 9 -9 49 -7 160 9 284 40 569 50 879 31 219 -14 316 -24 795 -80 228 -27
478 -54 555 -60 178 -13 582 -13 885 1 129 5 381 12 560 14 179 2 328 4 333 4
15 2 5 47 -48 225 -30 100 -55 193 -55 205 0 23 2 23 65 16 75 -8 120 4 181
47 39 28 96 95 125 148 26 48 52 69 100 85 57 19 105 63 130 120 10 22 30 92
45 155 27 109 28 127 28 340 0 212 -18 428 -45 560 -20 96 -21 110 -15 146 11
54 85 124 163 152 70 26 118 73 157 157 14 28 49 152 80 275 30 124 64 249 76
278 24 63 25 97 4 147 -12 30 -13 47 -5 86 10 46 9 53 -20 104 -33 58 -62 84
-126 113 l-40 17 133 405 c151 459 149 430 38 430 -34 0 -226 7 -425 15 -200
8 -443 16 -539 17 l-174 3 -136 -353 -136 -352 -49 -41 c-28 -22 -61 -57 -75
-77 -33 -47 -62 -52 -87 -15 -27 39 -53 108 -53 141 0 55 -22 104 -74 162 -61
68 -116 168 -141 255 -9 33 -57 139 -106 235 -98 192 -126 227 -237 290 -34
19 -64 41 -67 48 -2 7 2 27 11 45 16 30 16 31 -7 49 -13 10 -36 30 -51 43 -40
35 -91 59 -193 90 -157 48 -179 64 -286 208 -74 98 -138 215 -184 336 -33 85
-36 98 -26 136 12 48 8 70 -30 150 -15 33 -39 112 -53 176 -24 108 -26 135
-26 376 0 197 3 263 13 271 7 6 104 39 217 73 113 34 211 66 218 72 18 14 15
45 -5 55 -10 5 -115 3 -243 -4 -297 -17 -333 -17 -355 -1 -34 25 -9 62 157
234 89 93 191 198 226 234 51 53 63 71 57 88 -4 13 -15 21 -29 21 -12 0 -143
-75 -292 -166 -148 -91 -277 -170 -287 -175 -13 -8 -28 0 -68 38 -28 26 -55
55 -60 65 -6 11 1 142 21 382 36 436 36 442 11 455 -13 7 -23 7 -33 -2 -9 -7
-64 -163 -123 -347 -60 -184 -113 -345 -118 -357 -10 -22 -15 -23 -148 -23
-90 0 -140 4 -145 11 -3 6 -64 169 -134 363 -127 349 -128 351 -157 351 -23 0
-29 -5 -31 -27 -2 -14 15 -178 37 -363 48 -392 49 -411 22 -420 -11 -3 -36
-17 -57 -31 -20 -14 -44 -24 -53 -21 -9 2 -155 102 -326 222 -319 225 -357
246 -363 195 -2 -20 48 -81 259 -315 267 -296 308 -351 290 -397 -14 -38 -57
-83 -109 -116 -55 -36 -121 -49 -304 -60 -101 -7 -132 -12 -148 -27 -19 -17
-20 -17 -31 11 -35 90 -41 121 -49 244 -9 154 -28 236 -101 441 -141 398 -222
725 -249 1004 -7 75 -5 135 5 235 17 158 20 413 5 441 -7 12 -7 19 -1 19 6 0
27 -29 47 -66 32 -57 40 -65 63 -62 24 3 27 8 32 58 3 31 12 66 18 79 11 21
18 22 54 17 23 -4 55 -14 71 -22 34 -17 60 -18 87 -4 31 17 24 57 -18 95 l-37
34 37 47 c20 26 37 52 37 58 0 13 4 -4 -230 780 -159 535 -180 612 -170 636
10 24 9 47 -7 103 -2 10 -14 17 -29 17 -15 0 -24 6 -24 15 0 15 -46 19 -95 8z
m-129 -961 c27 -18 51 -113 24 -97 -5 3 -10 15 -10 26 0 60 -102 81 -159 33
-31 -26 -31 -26 -31 -130 0 -57 -4 -104 -9 -104 -13 0 -24 131 -16 181 8 45
42 85 78 92 38 7 112 7 123 -1z m56 -207 c-2 -14 -10 -30 -18 -36 -12 -9 -14
-4 -14 29 0 23 5 42 13 45 17 6 25 -10 19 -38z m907 -3090 c106 -9 201 -20
210 -24 48 -26 77 -83 66 -131 -6 -25 -16 -32 -93 -61 -168 -62 -170 -62 -200
-50 -36 15 -62 59 -62 105 0 44 -29 76 -69 76 -22 0 -31 6 -36 23 -4 12 -19
37 -33 56 l-25 34 24 -6 c14 -3 112 -13 218 -22z"/>
</g>
</svg>
